<mxfile host="app.diagrams.net" modified="2022-03-20T10:27:38.643Z" agent="5.0 (Macintosh; Intel Mac OS X 10_15_7) AppleWebKit/605.1.15 (KHTML, like Gecko) Version/14.1.2 Safari/605.1.15" etag="ZJfWl7H0h0jOPWkfmSPx" version="17.1.3" type="github">
  <diagram id="C5RBs43oDa-KdzZeNtuy" name="Page-1">
    <mxGraphModel dx="1615" dy="538" grid="1" gridSize="10" guides="1" tooltips="1" connect="1" arrows="1" fold="1" page="1" pageScale="1" pageWidth="827" pageHeight="1169" math="0" shadow="0">
      <root>
        <mxCell id="WIyWlLk6GJQsqaUBKTNV-0" />
        <mxCell id="WIyWlLk6GJQsqaUBKTNV-1" parent="WIyWlLk6GJQsqaUBKTNV-0" />
        <mxCell id="kKY4jda6wwt20LBGPMN2-0" value="class Object" style="swimlane;fontStyle=1;align=center;verticalAlign=top;childLayout=stackLayout;horizontal=1;startSize=26;horizontalStack=0;resizeParent=1;resizeParentMax=0;resizeLast=0;collapsible=1;marginBottom=0;" vertex="1" parent="WIyWlLk6GJQsqaUBKTNV-1">
          <mxGeometry x="290" y="110" width="290" height="130" as="geometry">
            <mxRectangle x="290" y="110" width="100" height="26" as="alternateBounds" />
          </mxGeometry>
        </mxCell>
        <mxCell id="kKY4jda6wwt20LBGPMN2-1" value="+   static const char* _type_key = &quot;runtime.Object&quot;;&#xa;+   static bool _type_final = false;&#xa;+ static uint32_t _type_index = kDynamic;" style="text;strokeColor=none;fillColor=none;align=left;verticalAlign=top;spacingLeft=4;spacingRight=4;overflow=hidden;rotatable=0;points=[[0,0.5],[1,0.5]];portConstraint=eastwest;" vertex="1" parent="kKY4jda6wwt20LBGPMN2-0">
          <mxGeometry y="26" width="290" height="54" as="geometry" />
        </mxCell>
        <mxCell id="kKY4jda6wwt20LBGPMN2-2" value="" style="line;strokeWidth=1;fillColor=none;align=left;verticalAlign=middle;spacingTop=-1;spacingLeft=3;spacingRight=3;rotatable=0;labelPosition=right;points=[];portConstraint=eastwest;" vertex="1" parent="kKY4jda6wwt20LBGPMN2-0">
          <mxGeometry y="80" width="290" height="8" as="geometry" />
        </mxCell>
        <mxCell id="kKY4jda6wwt20LBGPMN2-3" value="+   uint32_t type_index() const;&#xa;+ string GetTypeKey() const;" style="text;strokeColor=none;fillColor=none;align=left;verticalAlign=top;spacingLeft=4;spacingRight=4;overflow=hidden;rotatable=0;points=[[0,0.5],[1,0.5]];portConstraint=eastwest;" vertex="1" parent="kKY4jda6wwt20LBGPMN2-0">
          <mxGeometry y="88" width="290" height="42" as="geometry" />
        </mxCell>
        <mxCell id="kKY4jda6wwt20LBGPMN2-11" style="edgeStyle=orthogonalEdgeStyle;rounded=0;orthogonalLoop=1;jettySize=auto;html=1;entryX=0.485;entryY=1;entryDx=0;entryDy=0;entryPerimeter=0;endArrow=block;endFill=0;" edge="1" parent="WIyWlLk6GJQsqaUBKTNV-1" source="kKY4jda6wwt20LBGPMN2-4" target="kKY4jda6wwt20LBGPMN2-3">
          <mxGeometry relative="1" as="geometry" />
        </mxCell>
        <mxCell id="kKY4jda6wwt20LBGPMN2-4" value="class BaseExprNode" style="swimlane;fontStyle=1;align=center;verticalAlign=top;childLayout=stackLayout;horizontal=1;startSize=26;horizontalStack=0;resizeParent=1;resizeParentMax=0;resizeLast=0;collapsible=1;marginBottom=0;" vertex="1" parent="WIyWlLk6GJQsqaUBKTNV-1">
          <mxGeometry x="85" y="310" width="256" height="58" as="geometry" />
        </mxCell>
        <mxCell id="kKY4jda6wwt20LBGPMN2-5" value="+ static  const char* _type_key = &quot;BaseExpr&quot;;" style="text;strokeColor=none;fillColor=none;align=left;verticalAlign=top;spacingLeft=4;spacingRight=4;overflow=hidden;rotatable=0;points=[[0,0.5],[1,0.5]];portConstraint=eastwest;" vertex="1" parent="kKY4jda6wwt20LBGPMN2-4">
          <mxGeometry y="26" width="256" height="24" as="geometry" />
        </mxCell>
        <mxCell id="kKY4jda6wwt20LBGPMN2-6" value="" style="line;strokeWidth=1;fillColor=none;align=left;verticalAlign=middle;spacingTop=-1;spacingLeft=3;spacingRight=3;rotatable=0;labelPosition=right;points=[];portConstraint=eastwest;" vertex="1" parent="kKY4jda6wwt20LBGPMN2-4">
          <mxGeometry y="50" width="256" height="8" as="geometry" />
        </mxCell>
        <mxCell id="kKY4jda6wwt20LBGPMN2-9" style="edgeStyle=orthogonalEdgeStyle;rounded=0;orthogonalLoop=1;jettySize=auto;html=1;entryX=1.003;entryY=0.778;entryDx=0;entryDy=0;entryPerimeter=0;" edge="1" parent="WIyWlLk6GJQsqaUBKTNV-1" source="kKY4jda6wwt20LBGPMN2-8" target="kKY4jda6wwt20LBGPMN2-1">
          <mxGeometry relative="1" as="geometry" />
        </mxCell>
        <mxCell id="kKY4jda6wwt20LBGPMN2-8" value="&lt;div style=&quot;color: rgb(51 , 51 , 51) ; background-color: rgb(245 , 245 , 245) ; font-family: &amp;#34;menlo&amp;#34; , &amp;#34;monaco&amp;#34; , &amp;#34;courier new&amp;#34; , monospace ; font-size: 14px ; line-height: 21px&quot;&gt;&lt;span style=&quot;color: rgb(68 , 140 , 39)&quot;&gt;Object is base class of all object containers.&lt;/span&gt;&lt;/div&gt;" style="text;html=1;strokeColor=none;fillColor=none;align=center;verticalAlign=middle;whiteSpace=wrap;rounded=0;" vertex="1" parent="WIyWlLk6GJQsqaUBKTNV-1">
          <mxGeometry x="660" y="100" width="200" height="30" as="geometry" />
        </mxCell>
        <mxCell id="kKY4jda6wwt20LBGPMN2-15" style="edgeStyle=orthogonalEdgeStyle;rounded=0;orthogonalLoop=1;jettySize=auto;html=1;entryX=0.483;entryY=1.024;entryDx=0;entryDy=0;entryPerimeter=0;endArrow=block;endFill=0;" edge="1" parent="WIyWlLk6GJQsqaUBKTNV-1" source="kKY4jda6wwt20LBGPMN2-12" target="kKY4jda6wwt20LBGPMN2-3">
          <mxGeometry relative="1" as="geometry" />
        </mxCell>
        <mxCell id="kKY4jda6wwt20LBGPMN2-12" value="class BaseStmtNode" style="swimlane;fontStyle=1;align=center;verticalAlign=top;childLayout=stackLayout;horizontal=1;startSize=26;horizontalStack=0;resizeParent=1;resizeParentMax=0;resizeLast=0;collapsible=1;marginBottom=0;" vertex="1" parent="WIyWlLk6GJQsqaUBKTNV-1">
          <mxGeometry x="460" y="310" width="260" height="58" as="geometry" />
        </mxCell>
        <mxCell id="kKY4jda6wwt20LBGPMN2-13" value="+ static const char* _type_key = &quot;BaseStmt&quot;;" style="text;strokeColor=none;fillColor=none;align=left;verticalAlign=top;spacingLeft=4;spacingRight=4;overflow=hidden;rotatable=0;points=[[0,0.5],[1,0.5]];portConstraint=eastwest;" vertex="1" parent="kKY4jda6wwt20LBGPMN2-12">
          <mxGeometry y="26" width="260" height="24" as="geometry" />
        </mxCell>
        <mxCell id="kKY4jda6wwt20LBGPMN2-14" value="" style="line;strokeWidth=1;fillColor=none;align=left;verticalAlign=middle;spacingTop=-1;spacingLeft=3;spacingRight=3;rotatable=0;labelPosition=right;points=[];portConstraint=eastwest;" vertex="1" parent="kKY4jda6wwt20LBGPMN2-12">
          <mxGeometry y="50" width="260" height="8" as="geometry" />
        </mxCell>
        <mxCell id="kKY4jda6wwt20LBGPMN2-19" style="edgeStyle=orthogonalEdgeStyle;rounded=0;orthogonalLoop=1;jettySize=auto;html=1;entryX=0.516;entryY=1;entryDx=0;entryDy=0;entryPerimeter=0;endArrow=block;endFill=0;" edge="1" parent="WIyWlLk6GJQsqaUBKTNV-1" source="kKY4jda6wwt20LBGPMN2-16" target="kKY4jda6wwt20LBGPMN2-6">
          <mxGeometry relative="1" as="geometry" />
        </mxCell>
        <mxCell id="kKY4jda6wwt20LBGPMN2-16" value="class PrimExprNode" style="swimlane;fontStyle=1;align=center;verticalAlign=top;childLayout=stackLayout;horizontal=1;startSize=26;horizontalStack=0;resizeParent=1;resizeParentMax=0;resizeLast=0;collapsible=1;marginBottom=0;" vertex="1" parent="WIyWlLk6GJQsqaUBKTNV-1">
          <mxGeometry x="-20" y="490" width="256" height="68" as="geometry" />
        </mxCell>
        <mxCell id="kKY4jda6wwt20LBGPMN2-17" value="+ DataType dtype;&#xa;+ static  const char* _type_key = &quot;PrimExpr&quot;;" style="text;strokeColor=none;fillColor=none;align=left;verticalAlign=top;spacingLeft=4;spacingRight=4;overflow=hidden;rotatable=0;points=[[0,0.5],[1,0.5]];portConstraint=eastwest;" vertex="1" parent="kKY4jda6wwt20LBGPMN2-16">
          <mxGeometry y="26" width="256" height="34" as="geometry" />
        </mxCell>
        <mxCell id="kKY4jda6wwt20LBGPMN2-18" value="" style="line;strokeWidth=1;fillColor=none;align=left;verticalAlign=middle;spacingTop=-1;spacingLeft=3;spacingRight=3;rotatable=0;labelPosition=right;points=[];portConstraint=eastwest;" vertex="1" parent="kKY4jda6wwt20LBGPMN2-16">
          <mxGeometry y="60" width="256" height="8" as="geometry" />
        </mxCell>
        <mxCell id="kKY4jda6wwt20LBGPMN2-20" value="class IntImmNode" style="swimlane;fontStyle=1;align=center;verticalAlign=top;childLayout=stackLayout;horizontal=1;startSize=26;horizontalStack=0;resizeParent=1;resizeParentMax=0;resizeLast=0;collapsible=1;marginBottom=0;" vertex="1" parent="WIyWlLk6GJQsqaUBKTNV-1">
          <mxGeometry x="-240" y="660" width="150" height="68" as="geometry" />
        </mxCell>
        <mxCell id="kKY4jda6wwt20LBGPMN2-21" value="+ int64_t value;&#xa;+ _type_key = &quot;IntImm&quot;;" style="text;strokeColor=none;fillColor=none;align=left;verticalAlign=top;spacingLeft=4;spacingRight=4;overflow=hidden;rotatable=0;points=[[0,0.5],[1,0.5]];portConstraint=eastwest;" vertex="1" parent="kKY4jda6wwt20LBGPMN2-20">
          <mxGeometry y="26" width="150" height="34" as="geometry" />
        </mxCell>
        <mxCell id="kKY4jda6wwt20LBGPMN2-22" value="" style="line;strokeWidth=1;fillColor=none;align=left;verticalAlign=middle;spacingTop=-1;spacingLeft=3;spacingRight=3;rotatable=0;labelPosition=right;points=[];portConstraint=eastwest;" vertex="1" parent="kKY4jda6wwt20LBGPMN2-20">
          <mxGeometry y="60" width="150" height="8" as="geometry" />
        </mxCell>
        <mxCell id="kKY4jda6wwt20LBGPMN2-23" value="class FloatImmNode" style="swimlane;fontStyle=1;align=center;verticalAlign=top;childLayout=stackLayout;horizontal=1;startSize=26;horizontalStack=0;resizeParent=1;resizeParentMax=0;resizeLast=0;collapsible=1;marginBottom=0;" vertex="1" parent="WIyWlLk6GJQsqaUBKTNV-1">
          <mxGeometry x="-240" y="750" width="150" height="68" as="geometry" />
        </mxCell>
        <mxCell id="kKY4jda6wwt20LBGPMN2-24" value="+ double value;&#xa;+ _type_key = &quot;FloatImm&quot;;" style="text;strokeColor=none;fillColor=none;align=left;verticalAlign=top;spacingLeft=4;spacingRight=4;overflow=hidden;rotatable=0;points=[[0,0.5],[1,0.5]];portConstraint=eastwest;" vertex="1" parent="kKY4jda6wwt20LBGPMN2-23">
          <mxGeometry y="26" width="150" height="34" as="geometry" />
        </mxCell>
        <mxCell id="kKY4jda6wwt20LBGPMN2-25" value="" style="line;strokeWidth=1;fillColor=none;align=left;verticalAlign=middle;spacingTop=-1;spacingLeft=3;spacingRight=3;rotatable=0;labelPosition=right;points=[];portConstraint=eastwest;" vertex="1" parent="kKY4jda6wwt20LBGPMN2-23">
          <mxGeometry y="60" width="150" height="8" as="geometry" />
        </mxCell>
        <mxCell id="kKY4jda6wwt20LBGPMN2-26" value="class StringImmNode" style="swimlane;fontStyle=1;align=center;verticalAlign=top;childLayout=stackLayout;horizontal=1;startSize=26;horizontalStack=0;resizeParent=1;resizeParentMax=0;resizeLast=0;collapsible=1;marginBottom=0;" vertex="1" parent="WIyWlLk6GJQsqaUBKTNV-1">
          <mxGeometry x="-50" y="660" width="170" height="68" as="geometry" />
        </mxCell>
        <mxCell id="kKY4jda6wwt20LBGPMN2-27" value="+ String value;&#xa;+ _type_key = &quot;tir.StringImm&quot;;" style="text;strokeColor=none;fillColor=none;align=left;verticalAlign=top;spacingLeft=4;spacingRight=4;overflow=hidden;rotatable=0;points=[[0,0.5],[1,0.5]];portConstraint=eastwest;" vertex="1" parent="kKY4jda6wwt20LBGPMN2-26">
          <mxGeometry y="26" width="170" height="34" as="geometry" />
        </mxCell>
        <mxCell id="kKY4jda6wwt20LBGPMN2-28" value="" style="line;strokeWidth=1;fillColor=none;align=left;verticalAlign=middle;spacingTop=-1;spacingLeft=3;spacingRight=3;rotatable=0;labelPosition=right;points=[];portConstraint=eastwest;" vertex="1" parent="kKY4jda6wwt20LBGPMN2-26">
          <mxGeometry y="60" width="170" height="8" as="geometry" />
        </mxCell>
        <mxCell id="kKY4jda6wwt20LBGPMN2-29" value="class CastNode" style="swimlane;fontStyle=1;align=center;verticalAlign=top;childLayout=stackLayout;horizontal=1;startSize=26;horizontalStack=0;resizeParent=1;resizeParentMax=0;resizeLast=0;collapsible=1;marginBottom=0;" vertex="1" parent="WIyWlLk6GJQsqaUBKTNV-1">
          <mxGeometry x="-50" y="750" width="170" height="68" as="geometry" />
        </mxCell>
        <mxCell id="kKY4jda6wwt20LBGPMN2-30" value="+ PrimExpr value;;&#xa;+ _type_key = &quot;tir.Cast&quot;;" style="text;strokeColor=none;fillColor=none;align=left;verticalAlign=top;spacingLeft=4;spacingRight=4;overflow=hidden;rotatable=0;points=[[0,0.5],[1,0.5]];portConstraint=eastwest;" vertex="1" parent="kKY4jda6wwt20LBGPMN2-29">
          <mxGeometry y="26" width="170" height="34" as="geometry" />
        </mxCell>
        <mxCell id="kKY4jda6wwt20LBGPMN2-31" value="" style="line;strokeWidth=1;fillColor=none;align=left;verticalAlign=middle;spacingTop=-1;spacingLeft=3;spacingRight=3;rotatable=0;labelPosition=right;points=[];portConstraint=eastwest;" vertex="1" parent="kKY4jda6wwt20LBGPMN2-29">
          <mxGeometry y="60" width="170" height="8" as="geometry" />
        </mxCell>
        <mxCell id="kKY4jda6wwt20LBGPMN2-32" value="class BinaryOpNode" style="swimlane;fontStyle=1;align=center;verticalAlign=top;childLayout=stackLayout;horizontal=1;startSize=26;horizontalStack=0;resizeParent=1;resizeParentMax=0;resizeLast=0;collapsible=1;marginBottom=0;" vertex="1" parent="WIyWlLk6GJQsqaUBKTNV-1">
          <mxGeometry x="-50" y="830" width="170" height="68" as="geometry" />
        </mxCell>
        <mxCell id="kKY4jda6wwt20LBGPMN2-33" value="+ PrimExpr a;&#xa;+ PrimExpr b;" style="text;strokeColor=none;fillColor=none;align=left;verticalAlign=top;spacingLeft=4;spacingRight=4;overflow=hidden;rotatable=0;points=[[0,0.5],[1,0.5]];portConstraint=eastwest;" vertex="1" parent="kKY4jda6wwt20LBGPMN2-32">
          <mxGeometry y="26" width="170" height="34" as="geometry" />
        </mxCell>
        <mxCell id="kKY4jda6wwt20LBGPMN2-34" value="" style="line;strokeWidth=1;fillColor=none;align=left;verticalAlign=middle;spacingTop=-1;spacingLeft=3;spacingRight=3;rotatable=0;labelPosition=right;points=[];portConstraint=eastwest;" vertex="1" parent="kKY4jda6wwt20LBGPMN2-32">
          <mxGeometry y="60" width="170" height="8" as="geometry" />
        </mxCell>
        <mxCell id="kKY4jda6wwt20LBGPMN2-35" value="class CmpOpNode" style="swimlane;fontStyle=1;align=center;verticalAlign=top;childLayout=stackLayout;horizontal=1;startSize=26;horizontalStack=0;resizeParent=1;resizeParentMax=0;resizeLast=0;collapsible=1;marginBottom=0;" vertex="1" parent="WIyWlLk6GJQsqaUBKTNV-1">
          <mxGeometry x="128" y="660" width="170" height="68" as="geometry" />
        </mxCell>
        <mxCell id="kKY4jda6wwt20LBGPMN2-36" value="+ String value;&#xa;+ _type_key = &quot;tir.StringImm&quot;;" style="text;strokeColor=none;fillColor=none;align=left;verticalAlign=top;spacingLeft=4;spacingRight=4;overflow=hidden;rotatable=0;points=[[0,0.5],[1,0.5]];portConstraint=eastwest;" vertex="1" parent="kKY4jda6wwt20LBGPMN2-35">
          <mxGeometry y="26" width="170" height="34" as="geometry" />
        </mxCell>
        <mxCell id="kKY4jda6wwt20LBGPMN2-37" value="" style="line;strokeWidth=1;fillColor=none;align=left;verticalAlign=middle;spacingTop=-1;spacingLeft=3;spacingRight=3;rotatable=0;labelPosition=right;points=[];portConstraint=eastwest;" vertex="1" parent="kKY4jda6wwt20LBGPMN2-35">
          <mxGeometry y="60" width="170" height="8" as="geometry" />
        </mxCell>
      </root>
    </mxGraphModel>
  </diagram>
</mxfile>
